# Blender v2.82 (sub 7) OBJ File: ''
# www.blender.org
mtllib tree_base.mtl
o Baumstamm_Mesh.001
v -0.053808 0.718226 -1.138856
v -0.231246 0.718226 -1.392265
v -0.539424 0.718226 -1.365303
v -0.670163 0.718226 -1.084932
v -0.492724 0.718226 -0.831524
v -0.184547 0.718226 -0.858486
v -0.154064 1.842209 -0.966307
v -0.116810 1.842209 -1.046200
v -0.109127 1.842209 -1.134017
v -0.131942 1.842209 -1.219165
v -0.182504 1.842209 -1.291375
v -0.254714 1.842209 -1.341937
v -0.339863 1.842209 -1.364753
v -0.427680 1.842209 -1.357070
v -0.507573 1.842209 -1.319815
v -0.569906 1.842209 -1.257482
v -0.607161 1.842209 -1.177589
v -0.614844 1.842209 -1.089772
v -0.592028 1.842209 -1.004624
v -0.541466 1.842209 -0.932413
v -0.469256 1.842209 -0.881851
v -0.384108 1.842209 -0.859036
v -0.296291 1.842209 -0.866719
v -0.216398 1.842209 -0.903973
v -0.442052 0.718226 -1.410708
v -0.335023 0.718226 -1.420072
v -0.342040 0.527306 -1.628706
v -0.342040 0.579540 -1.628706
v -0.382342 0.644935 -1.615202
v -0.437722 0.644935 -1.605104
v -0.464079 0.623769 -1.600580
v -0.487302 0.527306 -1.604062
v -0.412594 0.556001 -1.685622
v -0.436251 0.602001 -1.654115
v -0.412028 0.527306 -1.684641
v -0.432215 0.527306 -1.681929
v -0.532531 0.669187 -1.354408
v -0.661284 0.669395 -1.085709
v -0.488958 0.669395 -0.839601
v -0.189659 0.669395 -0.865786
v -0.062686 0.669395 -1.138080
v -0.253630 0.661319 -1.388138
v -0.235013 0.669395 -1.384188
v -0.361365 0.625333 -1.618507
v -0.487302 0.577305 -1.604062
v -0.401599 0.602643 -1.658978
v -0.432781 0.556001 -1.682909
v -0.514751 0.661266 -1.361122
v -0.658629 0.661319 -1.104555
v -0.530686 0.619622 -1.351733
v -0.532517 0.536068 -1.355439
v -0.660799 0.718226 -1.191961
v -0.615394 0.718226 -1.289333
v -0.545159 0.661408 -1.339828
v -0.656957 0.661266 -1.103536
v -0.802337 0.527306 -1.386900
v -0.802337 0.579540 -1.386900
v -0.810793 0.644935 -1.345245
v -0.829738 0.644935 -1.292236
v -0.853625 0.577305 -1.248777
v -0.853625 0.527306 -1.248777
v -0.803166 0.625333 -1.365064
v -0.838999 0.623769 -1.267148
v -0.858332 0.602643 -1.350456
v -0.871447 0.602001 -1.318015
v -0.894649 0.556001 -1.335417
v -0.886904 0.556001 -1.354255
v -0.885772 0.527306 -1.354255
v -0.893516 0.527306 -1.335417
v -0.658167 0.619591 -1.085982
v -0.660919 0.536068 -1.085308
v -0.580732 0.718226 -0.893148
v -0.642356 0.718226 -0.981155
v -0.655396 0.661319 -1.067611
v -0.503951 0.661319 -0.851324
v -0.824837 0.527306 -0.866127
v -0.824837 0.579540 -0.866127
v -0.792991 0.644936 -0.837976
v -0.756556 0.644936 -0.795065
v -0.730863 0.577305 -0.752648
v -0.730863 0.527306 -0.752648
v -0.806341 0.625333 -0.854491
v -0.739459 0.623769 -0.774500
v -0.821273 0.602643 -0.799411
v -0.799736 0.602001 -0.771833
v -0.826408 0.556001 -0.760441
v -0.838850 0.556001 -0.776567
v -0.838284 0.527306 -0.777548
v -0.825841 0.527306 -0.761422
v -0.487635 0.619591 -0.842437
v -0.492942 0.536068 -0.837802
v -0.281918 0.718226 -0.813080
v -0.388947 0.718226 -0.803717
v -0.470340 0.661319 -0.835651
v -0.207307 0.661319 -0.858663
v -0.381469 0.527306 -0.585615
v -0.381470 0.579540 -0.585615
v -0.341167 0.644936 -0.599119
v -0.285787 0.644936 -0.609217
v -0.236207 0.577305 -0.610259
v -0.236207 0.527306 -0.610259
v -0.362145 0.625333 -0.595815
v -0.259430 0.623769 -0.613741
v -0.321910 0.602643 -0.555344
v -0.287258 0.602001 -0.560207
v -0.290728 0.556001 -0.531412
v -0.310915 0.556001 -0.528700
v -0.311481 0.527306 -0.529681
v -0.291294 0.527306 -0.532393
v -0.191453 0.619591 -0.868349
v -0.190992 0.536068 -0.858882
v -0.063171 0.718226 -1.031827
v -0.108577 0.718226 -0.934456
v -0.176929 0.661319 -0.879934
v -0.065342 0.661319 -1.119234
v 0.086380 0.527306 -0.830502
v 0.086380 0.579540 -0.830502
v 0.094837 0.644936 -0.872157
v 0.113781 0.644936 -0.925166
v 0.137669 0.577305 -0.968625
v 0.137669 0.527306 -0.968625
v 0.087210 0.625333 -0.852338
v 0.123042 0.623769 -0.950255
v 0.142376 0.602643 -0.866946
v 0.155490 0.602001 -0.899387
v 0.178692 0.556001 -0.881985
v 0.170948 0.556001 -0.863147
v 0.169816 0.527306 -0.863147
v 0.177560 0.527306 -0.881985
v -0.065803 0.619591 -1.137807
v -0.055037 0.536068 -1.132094
v -0.143238 0.718226 -1.330641
v -0.081615 0.718226 -1.242633
v -0.236335 0.536068 -1.381352
v -0.236335 0.619591 -1.381352
v -0.068574 0.661319 -1.156178
v -0.220020 0.661319 -1.372465
v 0.107106 0.527306 -1.360313
v 0.107106 0.579540 -1.360313
v 0.075260 0.644935 -1.388463
v 0.038825 0.644935 -1.431375
v 0.013132 0.577305 -1.473791
v 0.013132 0.527306 -1.473791
v 0.088610 0.625333 -1.371949
v 0.021728 0.623769 -1.451939
v 0.103542 0.602643 -1.427028
v 0.082004 0.602001 -1.454606
v 0.108676 0.556001 -1.465998
v 0.122831 0.556001 -1.447572
v 0.122265 0.527306 -1.446591
v 0.108110 0.527306 -1.465018
vt 0.561153 0.771376
vt 0.581276 0.768725
vt 0.607241 0.979737
vt 0.590730 0.981912
vt 0.601444 0.766832
vt 0.623975 0.977813
vt 0.621575 0.764454
vt 0.640547 0.976185
vt 0.641804 0.762817
vt 0.657144 0.974840
vt 0.662039 0.761939
vt 0.673952 0.973759
vt 0.682261 0.760574
vt 0.690582 0.972965
vt 0.702544 0.759954
vt 0.707224 0.972456
vt 0.722783 0.760214
vt 0.724126 0.972216
vt 0.743038 0.759739
vt 0.740773 0.972251
vt 0.763324 0.760130
vt 0.757418 0.972571
vt 0.783541 0.761276
vt 0.774245 0.973174
vt 0.803793 0.761937
vt 0.790868 0.974044
vt 0.824032 0.763344
vt 0.807473 0.975199
vt 0.844164 0.765503
vt 0.824248 0.976645
vt 0.864355 0.767179
vt 0.840805 0.978348
vt 0.884495 0.769600
vt 0.857330 0.980334
vt 0.904591 0.772366
vt 0.873818 0.982604
vt 0.541078 0.774372
vt 0.574259 0.984370
vt 0.600468 0.757618
vt 0.603824 0.755525
vt 0.661526 0.752689
vt 0.657879 0.751162
vt 0.475789 0.653812
vt 0.462590 0.645563
vt 0.487771 0.602191
vt 0.496025 0.607349
vt 0.524104 0.653386
vt 0.503295 0.653642
vt 0.508932 0.614753
vt 0.519047 0.615433
vt 0.564681 0.645119
vt 0.551668 0.653744
vt 0.533632 0.608802
vt 0.541608 0.603961
vt 0.484004 0.656039
vt 0.503938 0.612526
vt 0.543483 0.656047
vt 0.525192 0.613613
vt 0.511345 0.602889
vt 0.518299 0.603154
vt 0.517398 0.592377
vt 0.513353 0.592172
vt 0.513557 0.586465
vt 0.517602 0.586670
vt 0.510913 0.592046
vt 0.497489 0.604828
vt 0.492471 0.595790
vt 0.507973 0.587182
vt 0.519618 0.592616
vt 0.522887 0.588060
vt 0.538199 0.598666
vt 0.532641 0.606694
vt 0.664982 0.750768
vt 0.722844 0.750758
vt 0.719292 0.749028
vt 0.726436 0.749016
vt 0.783954 0.752024
vt 0.780478 0.750140
vt 0.787583 0.750457
vt 0.845040 0.756284
vt 0.841664 0.754229
vt 0.848744 0.754902
vt 0.905580 0.763046
vt 0.902233 0.761036
vt 0.539982 0.765059
vt 0.543308 0.763010
vt 0.596747 0.756275
vt 0.660986 0.742969
vt 0.722796 0.740990
vt 0.784387 0.742300
vt 0.845961 0.746596
vt 0.536333 0.763668
vt 0.539080 0.755488
vt 0.599441 0.747932
vt 0.495941 0.551851
vt 0.482833 0.543245
vt 0.508221 0.499075
vt 0.516548 0.504226
vt 0.544426 0.550011
vt 0.523488 0.550203
vt 0.529611 0.510721
vt 0.539779 0.511448
vt 0.584704 0.542309
vt 0.572125 0.549943
vt 0.554094 0.505291
vt 0.562191 0.500556
vt 0.504311 0.553133
vt 0.524596 0.508461
vt 0.564021 0.552465
vt 0.545971 0.509656
vt 0.532091 0.498795
vt 0.538622 0.499421
vt 0.537731 0.488539
vt 0.533647 0.488325
vt 0.533864 0.482563
vt 0.537947 0.482778
vt 0.531143 0.488199
vt 0.518139 0.500687
vt 0.513127 0.491571
vt 0.528167 0.483296
vt 0.539990 0.488800
vt 0.543303 0.484217
vt 0.558704 0.494969
vt 0.553070 0.503044
vt 0.615750 0.554914
vt 0.602163 0.547027
vt 0.625378 0.502956
vt 0.634111 0.507433
vt 0.664550 0.553243
vt 0.643454 0.553218
vt 0.647400 0.512545
vt 0.657726 0.514020
vt 0.704696 0.540973
vt 0.692236 0.550652
vt 0.672282 0.506683
vt 0.680132 0.501493
vt 0.624152 0.556682
vt 0.642480 0.511999
vt 0.684146 0.554495
vt 0.663970 0.511871
vt 0.649274 0.500463
vt 0.656313 0.500414
vt 0.654911 0.490824
vt 0.650815 0.489544
vt 0.650105 0.485068
vt 0.654787 0.485038
vt 0.647848 0.490987
vt 0.635373 0.503082
vt 0.629800 0.495816
vt 0.644543 0.486273
vt 0.657192 0.490956
vt 0.660248 0.486173
vt 0.676300 0.496057
vt 0.671120 0.504473
vt 0.613426 0.641734
vt 0.600056 0.633378
vt 0.625565 0.589442
vt 0.633926 0.594668
vt 0.662370 0.641303
vt 0.641291 0.641563
vt 0.650392 0.597452
vt 0.660622 0.598140
vt 0.703475 0.632929
vt 0.690294 0.641666
vt 0.672022 0.596140
vt 0.680102 0.591235
vt 0.621749 0.643991
vt 0.641942 0.599911
vt 0.682002 0.643999
vt 0.663472 0.601013
vt 0.649445 0.590149
vt 0.656490 0.590418
vt 0.655578 0.579501
vt 0.651480 0.579293
vt 0.651687 0.573511
vt 0.655784 0.573719
vt 0.649007 0.579166
vt 0.635409 0.592113
vt 0.630326 0.582958
vt 0.646030 0.574238
vt 0.657826 0.579743
vt 0.661137 0.575127
vt 0.676649 0.585871
vt 0.671018 0.594004
vt 0.865968 0.550677
vt 0.852640 0.541928
vt 0.878453 0.497021
vt 0.886919 0.502257
vt 0.915262 0.548807
vt 0.893974 0.549002
vt 0.899768 0.509237
vt 0.910091 0.509936
vt 0.956213 0.540976
vt 0.943424 0.548738
vt 0.925091 0.503340
vt 0.933323 0.498526
vt 0.874477 0.551981
vt 0.895101 0.506563
vt 0.935184 0.551302
vt 0.916833 0.507778
vt 0.902721 0.496735
vt 0.909361 0.497373
vt 0.908456 0.486309
vt 0.904304 0.486091
vt 0.904523 0.480233
vt 0.908675 0.480451
vt 0.901757 0.485963
vt 0.888536 0.498660
vt 0.883441 0.489391
vt 0.898731 0.480978
vt 0.910752 0.486574
vt 0.914120 0.481914
vt 0.929779 0.492846
vt 0.924050 0.501055
vt 0.737225 0.554817
vt 0.723433 0.546811
vt 0.746999 0.502075
vt 0.755864 0.506619
vt 0.786763 0.553121
vt 0.765349 0.553096
vt 0.769619 0.513198
vt 0.779980 0.513299
vt 0.827515 0.540666
vt 0.814867 0.550491
vt 0.794612 0.505857
vt 0.802581 0.500589
vt 0.745755 0.556612
vt 0.764359 0.511254
vt 0.806655 0.554392
vt 0.786174 0.511124
vt 0.771256 0.499544
vt 0.778401 0.499494
vt 0.776979 0.489759
vt 0.772820 0.488460
vt 0.772100 0.483916
vt 0.776853 0.483886
vt 0.769809 0.489924
vt 0.757145 0.502202
vt 0.751487 0.494827
vt 0.766453 0.485139
vt 0.779294 0.489894
vt 0.782396 0.485038
vt 0.798690 0.495071
vt 0.793432 0.503614
vn 0.5974 0.4697 0.6500
vn 0.8784 0.4764 0.0382
vn 0.9647 0.0493 0.2585
vn 0.8182 0.0493 0.5729
vn 0.9943 -0.0614 -0.0870
vn 0.9950 0.0493 -0.0870
vn 0.8612 0.4706 -0.1918
vn 0.9052 0.0493 -0.4221
vn 0.4716 0.4773 -0.7415
vn 0.7062 0.0493 -0.7062
vn 0.4218 -0.0614 -0.9046
vn 0.4221 0.0493 -0.9052
vn 0.2615 0.4609 -0.8480
vn 0.0870 0.0493 -0.9950
vn -0.4127 0.4623 -0.7848
vn -0.2585 0.0493 -0.9647
vn -0.5704 -0.0974 -0.8156
vn -0.5729 0.0493 -0.8182
vn -0.5998 0.4520 -0.6603
vn -0.8182 0.0493 -0.5729
vn -0.8804 0.4725 -0.0395
vn -0.9647 0.0493 -0.2585
vn -0.9943 -0.0614 0.0870
vn -0.9950 0.0493 0.0870
vn -0.8637 0.4650 0.1945
vn -0.9052 0.0493 0.4221
vn -0.4743 0.4744 0.7416
vn -0.7062 0.0493 0.7062
vn -0.4218 -0.0614 0.9046
vn -0.4221 0.0493 0.9052
vn -0.2637 0.4677 0.8437
vn -0.0871 0.0493 0.9950
vn 0.4057 0.4749 0.7809
vn 0.2585 0.0493 0.9647
vn 0.5725 -0.0614 0.8176
vn 0.5729 0.0493 0.8182
vn 0.9873 -0.1334 -0.0864
vn 0.9829 0.1538 0.1017
vn 0.4188 -0.1334 -0.8982
vn 0.2328 0.1648 -0.9585
vn 0.3926 0.2009 -0.8975
vn 0.3949 -0.0000 -0.9187
vn 0.7953 -0.0026 -0.6062
vn 0.7658 0.1870 -0.6153
vn 0.2447 0.7962 -0.5534
vn -0.3672 0.8041 -0.4676
vn -0.5980 0.0301 -0.8009
vn -0.5738 0.2160 -0.7900
vn -0.8981 0.1921 -0.3956
vn -0.9229 0.0026 -0.3851
vn 0.5735 0.1496 -0.8054
vn 0.6317 0.5104 -0.5836
vn -0.7174 0.1306 -0.6843
vn -0.7518 0.5259 -0.3979
vn 0.1931 0.5589 -0.8064
vn -0.4331 0.5599 -0.7063
vn -0.4765 0.2111 -0.8534
vn 0.2164 0.2102 -0.9534
vn 0.2753 -0.0223 -0.9611
vn -0.5209 -0.0270 -0.8532
vn -0.5645 -0.1812 -0.8053
vn -0.4064 0.1203 -0.9057
vn -0.9873 -0.1334 0.0864
vn -0.9920 -0.1258 -0.0115
vn -0.9838 0.1511 -0.0968
vn -0.4188 -0.1334 0.8982
vn -0.2343 0.1641 0.9582
vn -0.5776 0.1525 0.8019
vn 0.5684 -0.1334 0.8118
vn 0.7126 0.1639 0.6822
vn 0.4041 0.1534 0.9018
vn 0.9467 0.1644 -0.2770
vn -0.9709 0.2134 0.1088
vn -0.4015 0.2224 0.8884
vn 0.5632 0.2275 0.7944
vn 0.9681 0.2347 -0.0879
vn -0.1272 0.0104 -0.9918
vn -0.1476 0.1954 -0.9696
vn -0.3540 0.7946 -0.4933
vn -0.5851 0.8067 0.0829
vn -0.9935 0.0209 0.1116
vn -0.7918 0.1923 0.5797
vn -0.7950 0.0019 0.6066
vn -0.1837 0.5070 -0.8421
vn -0.6253 0.5132 0.5879
vn -0.7187 0.5303 0.4496
vn -0.6018 0.5589 -0.5705
vn -0.8283 0.5599 0.0219
vn -0.9774 0.2111 -0.0141
vn -0.7175 0.2102 -0.6641
vn -0.6947 -0.0223 -0.7190
vn -0.9993 -0.0270 0.0245
vn -0.9225 0.0041 -0.3860
vn -0.9144 0.1912 -0.3569
vn -0.5977 0.7993 0.0620
vn -0.2194 0.8089 0.5454
vn -0.3810 0.0466 0.9234
vn 0.1068 0.1920 0.9756
vn 0.1280 0.0029 0.9918
vn -0.8192 0.5121 -0.2582
vn 0.0308 0.5308 0.8469
vn -0.7950 0.5589 0.2360
vn -0.3951 0.5599 0.7283
vn -0.5009 0.2111 0.8394
vn -0.9339 0.2102 0.2893
vn -0.9700 -0.0223 0.2421
vn -0.4785 -0.0270 0.8777
vn -0.7937 0.0225 0.6080
vn -0.7645 0.2018 0.6123
vn -0.2460 0.8008 0.5461
vn 0.3621 0.8097 0.4618
vn 0.6189 0.0569 0.7834
vn 0.8983 0.1912 0.3957
vn 0.9228 0.0013 0.3853
vn -0.6348 0.5135 0.5774
vn 0.7487 0.5309 0.3969
vn -0.1931 0.5589 0.8064
vn 0.4331 0.5599 0.7063
vn 0.4765 0.2111 0.8535
vn -0.2164 0.2102 0.9534
vn -0.2753 -0.0223 0.9611
vn 0.5209 -0.0270 0.8532
vn 0.1310 0.0324 0.9909
vn 0.1477 0.2075 0.9670
vn 0.3479 0.8020 0.4855
vn 0.5793 0.8108 -0.0833
vn 0.9853 0.0718 -0.1552
vn 0.7912 0.1923 -0.5805
vn 0.7949 0.0030 -0.6067
vn 0.1805 0.5144 0.8383
vn 0.7171 0.5315 -0.4508
vn 0.6018 0.5589 0.5705
vn 0.8283 0.5599 -0.0219
vn 0.9774 0.2111 0.0141
vn 0.7175 0.2102 0.6641
vn 0.6947 -0.0223 0.7190
vn 0.9993 -0.0270 -0.0245
vn 0.9197 0.0425 0.3903
vn 0.9071 0.2181 0.3601
vn 0.5936 0.8027 -0.0579
vn 0.2167 0.8115 -0.5428
vn -0.1099 0.1870 -0.9762
vn -0.1320 -0.0067 -0.9912
vn 0.8134 0.5179 0.2647
vn -0.0327 0.5319 -0.8462
vn 0.7895 0.5658 -0.2378
vn 0.3954 0.5598 -0.7282
vn 0.5017 0.2110 -0.8389
vn 0.9377 0.2110 -0.2761
vn 0.9730 -0.0222 -0.2296
vn 0.4794 -0.0270 -0.8772
usemtl Zelt_Baumstamm_Boden
s 1
f 113/1/1 112/2/2 8/3/3 7/4/4
f 112/2/2 1/5/5 9/6/6 8/3/3
f 1/5/5 133/7/7 10/8/8 9/6/6
f 133/7/7 132/9/9 11/10/10 10/8/8
f 132/9/9 2/11/11 12/12/12 11/10/10
f 2/11/11 26/13/13 13/14/14 12/12/12
f 26/13/13 25/15/15 14/16/16 13/14/14
f 25/15/15 3/17/17 15/18/18 14/16/16
f 3/17/17 53/19/19 16/20/20 15/18/18
f 53/19/19 52/21/21 17/22/22 16/20/20
f 52/21/21 4/23/23 18/24/24 17/22/22
f 4/23/23 73/25/25 19/26/26 18/24/24
f 73/25/25 72/27/27 20/28/28 19/26/26
f 72/27/27 5/29/29 21/30/30 20/28/28
f 5/29/29 93/31/31 22/32/32 21/30/30
f 93/31/31 92/33/33 23/34/34 22/32/32
f 92/33/33 6/35/35 24/36/36 23/34/34
f 6/37/35 113/1/1 7/4/4 24/38/36
f 1/5/5 41/39/37 136/40/38 133/7/7
f 43/41/39 2/11/11 132/9/9 137/42/40
f 135/43/41 134/44/42 27/45/43 28/46/44
f 25/47/15 26/48/13 29/49/45 30/50/46
f 51/51/47 50/52/48 45/53/49 32/54/50
f 26/48/13 42/55/51 44/56/52 29/49/45
f 48/57/53 25/47/15 30/50/46 31/58/54
f 30/50/46 29/49/45 46/59/55 34/60/56
f 47/61/57 33/62/58 35/63/59 36/64/60
f 33/65/58 28/66/44 27/67/43 35/68/59
f 47/69/57 36/70/60 32/71/50 45/72/49
f 44/56/52 46/59/55 29/49/45
f 30/50/46 34/60/56 31/58/54
f 2/11/11 43/41/39 42/73/51 26/13/13
f 37/74/61 3/17/17 25/15/15 48/75/53
f 3/17/17 37/74/61 54/76/62 53/19/19
f 38/77/63 4/23/23 52/21/21 49/78/64
f 4/23/23 38/77/63 74/79/65 73/25/25
f 39/80/66 5/29/29 72/27/27 75/81/67
f 5/29/29 39/80/66 94/82/68 93/31/31
f 40/83/69 6/35/35 92/33/33 95/84/70
f 6/37/35 40/85/69 114/86/71 113/1/1
f 41/39/37 1/5/5 112/2/2 115/87/72
f 137/42/40 135/88/41 42/73/51 43/41/39
f 37/74/61 48/75/53 50/89/48 54/76/62
f 38/77/63 49/78/64 70/90/73 74/79/65
f 39/80/66 75/81/67 90/91/74 94/82/68
f 40/85/69 95/92/70 110/93/75 114/86/71
f 41/39/37 115/87/72 130/94/76 136/40/38
f 42/55/51 135/43/41 28/46/44 44/56/52
f 50/52/48 48/57/53 31/58/54 45/53/49
f 46/59/55 33/62/58 47/61/57 34/60/56
f 33/65/58 46/59/55 44/56/52 28/66/44
f 45/72/49 31/58/54 34/60/56 47/69/57
f 50/95/48 51/96/47 56/97/77 57/98/78
f 52/99/21 53/100/19 58/101/79 59/102/80
f 71/103/81 70/104/73 60/105/82 61/106/83
f 53/100/19 54/107/62 62/108/84 58/101/79
f 55/109/85 52/99/21 59/102/80 63/110/86
f 59/102/80 58/101/79 64/111/87 65/112/88
f 66/113/89 67/114/90 68/115/91 69/116/92
f 67/117/90 57/118/78 56/119/77 68/120/91
f 66/121/89 69/122/92 61/123/83 60/124/82
f 62/108/84 64/111/87 58/101/79
f 59/102/80 65/112/88 63/110/86
f 54/107/62 50/95/48 57/98/78 62/108/84
f 70/104/73 55/109/85 63/110/86 60/105/82
f 64/111/87 67/114/90 66/113/89 65/112/88
f 67/117/90 64/111/87 62/108/84 57/118/78
f 60/124/82 63/110/86 65/112/88 66/121/89
f 70/125/73 71/126/81 76/127/93 77/128/94
f 72/129/27 73/130/25 78/131/95 79/132/96
f 91/133/97 90/134/74 80/135/98 81/136/99
f 73/130/25 74/137/65 82/138/100 78/131/95
f 75/139/67 72/129/27 79/132/96 83/140/101
f 79/132/96 78/131/95 84/141/102 85/142/103
f 86/143/104 87/144/105 88/145/106 89/146/107
f 87/147/105 77/148/94 76/149/93 88/150/106
f 86/151/104 89/152/107 81/153/99 80/154/98
f 82/138/100 84/141/102 78/131/95
f 79/132/96 85/142/103 83/140/101
f 74/137/65 70/125/73 77/128/94 82/138/100
f 90/134/74 75/139/67 83/140/101 80/135/98
f 84/141/102 87/144/105 86/143/104 85/142/103
f 87/147/105 84/141/102 82/138/100 77/148/94
f 80/154/98 83/140/101 85/142/103 86/151/104
f 90/155/74 91/156/97 96/157/108 97/158/109
f 92/159/33 93/160/31 98/161/110 99/162/111
f 111/163/112 110/164/75 100/165/113 101/166/114
f 93/160/31 94/167/68 102/168/115 98/161/110
f 95/169/70 92/159/33 99/162/111 103/170/116
f 99/162/111 98/161/110 104/171/117 105/172/118
f 106/173/119 107/174/120 108/175/121 109/176/122
f 107/177/120 97/178/109 96/179/108 108/180/121
f 106/181/119 109/182/122 101/183/114 100/184/113
f 102/168/115 104/171/117 98/161/110
f 99/162/111 105/172/118 103/170/116
f 94/167/68 90/155/74 97/158/109 102/168/115
f 110/164/75 95/169/70 103/170/116 100/165/113
f 104/171/117 107/174/120 106/173/119 105/172/118
f 107/177/120 104/171/117 102/168/115 97/178/109
f 100/184/113 103/170/116 105/172/118 106/181/119
f 110/185/75 111/186/112 116/187/123 117/188/124
f 112/189/2 113/190/1 118/191/125 119/192/126
f 131/193/127 130/194/76 120/195/128 121/196/129
f 113/190/1 114/197/71 122/198/130 118/191/125
f 115/199/72 112/189/2 119/192/126 123/200/131
f 119/192/126 118/191/125 124/201/132 125/202/133
f 126/203/134 127/204/135 128/205/136 129/206/137
f 127/207/135 117/208/124 116/209/123 128/210/136
f 126/211/134 129/212/137 121/213/129 120/214/128
f 122/198/130 124/201/132 118/191/125
f 119/192/126 125/202/133 123/200/131
f 114/197/71 110/185/75 117/188/124 122/198/130
f 130/194/76 115/199/72 123/200/131 120/195/128
f 124/201/132 127/204/135 126/203/134 125/202/133
f 127/207/135 124/201/132 122/198/130 117/208/124
f 120/214/128 123/200/131 125/202/133 126/211/134
f 130/215/76 131/216/127 138/217/138 139/218/139
f 132/219/9 133/220/7 140/221/140 141/222/141
f 134/223/42 135/224/41 142/225/142 143/226/143
f 133/220/7 136/227/38 144/228/144 140/221/140
f 137/229/40 132/219/9 141/222/141 145/230/145
f 141/222/141 140/221/140 146/231/146 147/232/147
f 148/233/148 149/234/149 150/235/150 151/236/151
f 149/237/149 139/238/139 138/239/138 150/240/150
f 148/241/148 151/242/151 143/243/143 142/244/142
f 144/228/144 146/231/146 140/221/140
f 141/222/141 147/232/147 145/230/145
f 136/227/38 130/215/76 139/218/139 144/228/144
f 135/224/41 137/229/40 145/230/145 142/225/142
f 146/231/146 149/234/149 148/233/148 147/232/147
f 149/237/149 146/231/146 144/228/144 139/238/139
f 142/244/142 145/230/145 147/232/147 148/241/148
